<?xml version="1.0" encoding="utf-8"?>
<!-- Generator: Adobe Illustrator 21.1.0, SVG Export Plug-In . SVG Version: 6.00 Build 0)  -->
<svg version="1.1" id="Layer_1" xmlns="http://www.w3.org/2000/svg" xmlns:xlink="http://www.w3.org/1999/xlink" x="0px" y="0px"
	 viewBox="0 0 100 150" style="enable-background:new 0 0 100 150;" xml:space="preserve">
<g>
	<path d="M30.2,113.9c0.5,7.3,7.4,12.1,18.6,12.1c15.4,0,22.2-8.2,22.2-27.5v-7.3h-0.7c-4.6,8.9-14,14.2-28,14.2
		c-21.5,0-39.4-15.2-39.4-44.7c0-29.4,18.3-46.1,40.8-46.1c12.9,0,22,5.3,26.6,14.2H71V16.8h25.2v81.7c0,32.3-17.6,45.2-47.3,45.2
		c-25.9,0-42.2-9.2-43.3-29.8H30.2z M49.7,86.1c11.9,0,19.7-9.9,20-24.8V59c-0.4-15.1-8.2-25-20-25C37.4,34,30,45.1,30,60.7
		C30,76.3,37.4,86.1,49.7,86.1z"/>
</g>
</svg>
