<?xml version="1.0" encoding="utf-8"?>
<!-- Generator: Adobe Illustrator 21.1.0, SVG Export Plug-In . SVG Version: 6.00 Build 0)  -->
<svg version="1.1" id="Layer_1" xmlns="http://www.w3.org/2000/svg" xmlns:xlink="http://www.w3.org/1999/xlink" x="0px" y="0px"
	 viewBox="0 0 150 100" style="enable-background:new 0 0 150 100;" xml:space="preserve">
<path d="M7.2,5.7h13.6v13.6c0,3,0,9.2-0.5,15h0.4c2.4-4.6,7.2-7.3,14.5-7.3c11.1,0,20.3,7.9,20.3,23.1c0,15.2-9.4,23.8-21.1,23.8
	c-6.7,0-11.4-2.7-13.7-7.3h-0.4v6.2h-13V5.7z M31.2,63.8c6.3,0,10.2-5.8,10.2-13.8c0-8.1-3.8-13.1-10.2-13.1
	C25,36.9,21,42,20.8,49.8v0.5C20.8,58.4,24.9,63.8,31.2,63.8z M52.7,28h14.8l10,31.6h0.4L87.7,28h13.9L84.4,77.6
	c-2.9,8.5-8.3,16-19.1,16h-6V83.1H62c5.1,0,8.6-1.9,10.4-7.9l0.7-2.5H69L52.7,28z M122.7,26.9c14.2,0,23.1,8.2,23.1,22.8V53h-33.3
	c0.7,7.4,4.5,11.3,10.6,11.3c5.6,0,8.1-2.8,9-5.1h13.1c-1.5,8-9.6,14.7-22.3,14.7c-15.2,0-24.2-7.9-24.2-23.2
	C98.6,35.9,108.3,26.9,122.7,26.9z M112.8,45h19c-0.8-6-3.8-8.9-9.1-8.9C117.5,36.2,114.1,39.3,112.8,45z"/>
</svg>
